<svg width="14" height="17" viewBox="0 0 14 17" fill="none" xmlns="http://www.w3.org/2000/svg">
<path d="M13.0731 5.5214C12.9801 5.5937 11.3483 6.5129 11.3483 8.5578C11.3483 10.9229 13.4242 11.7595 13.4862 11.7801C13.4759 11.8317 13.1557 12.9265 12.3914 14.0419C11.7098 15.0231 10.9971 16.0042 9.91266 16.0042C8.82826 16.0042 8.54936 15.3742 7.29966 15.3742C6.08096 15.3742 5.64716 16.0249 4.65566 16.0249C3.66416 16.0249 2.97216 15.116 2.17696 14.0006C1.25776 12.6889 0.51416 10.6543 0.51416 8.723C0.51416 5.6246 2.52816 3.9824 4.51106 3.9824C5.56456 3.9824 6.44236 4.6744 7.10336 4.6744C7.73336 4.6744 8.71456 3.9411 9.91256 3.9411C10.3671 3.9412 11.999 3.9826 13.0731 5.5214ZM9.34466 2.6296C9.84036 2.0409 10.1916 1.225 10.1916 0.409098C10.1916 0.295498 10.1813 0.181898 10.1606 0.0888977C9.35496 0.119898 8.39446 0.625998 7.81606 1.2973C7.36166 1.8137 6.93816 2.6296 6.93816 3.4559C6.93816 3.5798 6.95886 3.7038 6.96916 3.7451C7.02076 3.7554 7.10346 3.7658 7.18606 3.7658C7.90906 3.7657 8.81786 3.2803 9.34466 2.6296Z" fill="white"/>
</svg>
